# xmcd CD database file
#
# Track frame offsets:
#	150
#	14034
#	24603
#	37267
#	50146
#	57397
#	69058
#	79933
#	93212
#	105931
#	117342
#	128870
#	138141
#	148052
#	161086
#	172277
#	185402
#	197260
#	211537
#	224685
#	233821
#	248042
#	256828
#	266927
#	276966
#	287904
#	301971
#	314123
#
# Disc length: 4356 seconds
#
# Revision: 0
# Processed by: cddbd v1.5.2PL0 Copyright (c) Steve Scherf et al.
# Submitted via: CDex 2.02
#
DISCID=ad11021c
DTITLE=Sam and Kirk McGee - The Essential Collectio
DYEAR=1999
DGENRE=Country
TTITLE0=While I'm Away
TTITLE1=Too Late to Change Your Mind
TTITLE2=Kirk's Waltz
TTITLE3=Drunkard's Dream
TTITLE4=Bound to Go
TTITLE5=Blue Night
TTITLE6=Dark Clouds
TTITLE7=Blues Com On In
TTITLE8=The Tramp
TTITLE9=Mabel Claire
TTITLE10=Gulf Coast Blues
TTITLE11=Flat Top Pickin' Sam McGee
TTITLE12=Buck Dancer's Choice
TTITLE13=Won't Happen Again
TTITLE14=Victor Rag
TTITLE15=When the Wagon was New
TTITLE16=Uncle Fuller
TTITLE17=Railroad Blues
TTITLE18=Shut the Door
TTITLE19=Sally Long
TTITLE20=Cabbage Head
TTITLE21=Franklin Blues
TTITLE22=Knoxville Blues
TTITLE23=Sam's Other Side
TTITLE24=Little Texas Waltz
TTITLE25=Southern Moon
TTITLE26=Waiting for a Letter
TTITLE27=The End of Forever
EXTD=YEAR: 1999
EXTT0=
EXTT1=
EXTT2=
EXTT3=
EXTT4=
EXTT5=
EXTT6=
EXTT7=
EXTT8=
EXTT9=
EXTT10=
EXTT11=
EXTT12=
EXTT13=
EXTT14=
EXTT15=
EXTT16=
EXTT17=
EXTT18=
EXTT19=
EXTT20=
EXTT21=
EXTT22=
EXTT23=
EXTT24=
EXTT25=
EXTT26=
EXTT27=
PLAYORDER=
